<?xml version="1.0" standalone="no"?>
<!DOCTYPE svg PUBLIC "-//W3C//DTD SVG 20010904//EN"
 "http://www.w3.org/TR/2001/REC-SVG-20010904/DTD/svg10.dtd">
<svg version="1.0" xmlns="http://www.w3.org/2000/svg"
 width="180.000000pt" height="180.000000pt" viewBox="0 0 180.000000 180.000000"
 preserveAspectRatio="xMidYMid meet">
<metadata>
Created by potrace 1.14, written by Peter Selinger 2001-2017
</metadata>
<g transform="translate(0.000000,180.000000) scale(0.100000,-0.100000)"
fill="#000000" stroke="none">
<path d="M864 1791 c-29 -13 -74 -68 -75 -94 -4 -51 2 -71 32 -120 72 -117 71
-106 69 -660 -1 -563 -1 -560 -80 -682 -63 -97 -56 -168 23 -215 39 -24 78
-25 122 -4 79 37 92 124 32 214 -66 100 -68 116 -65 660 2 563 0 550 100 709
13 21 21 50 21 78 0 37 -5 50 -35 80 -28 27 -45 36 -79 39 -24 2 -53 0 -65 -5z"/>
<path d="M1441 1468 c-112 -19 -179 -128 -150 -243 18 -70 6 -104 -58 -169
-62 -63 -86 -76 -138 -76 -22 0 -45 -9 -65 -27 -30 -25 -32 -30 -28 -75 7 -65
22 -77 120 -93 28 -4 52 -20 94 -63 77 -78 88 -102 79 -171 -19 -135 -4 -186
67 -244 65 -52 170 -48 239 10 102 86 79 252 -43 314 -36 19 -52 21 -120 15
-60 -5 -85 -3 -108 9 -38 20 -140 140 -141 168 -1 12 -2 40 -4 62 -3 56 15 92
75 153 60 59 51 56 182 57 90 0 99 2 139 30 167 117 60 378 -140 343z"/>
<path d="M233 1450 c-111 -57 -135 -217 -45 -303 48 -46 96 -60 183 -52 88 8
103 3 167 -59 59 -56 72 -84 72 -158 0 -71 -12 -95 -83 -170 -57 -61 -80 -69
-169 -62 -53 4 -83 2 -109 -10 -154 -66 -156 -287 -2 -352 139 -59 290 63 261
211 -16 83 -17 99 -4 129 21 49 127 152 164 160 18 3 45 9 62 12 44 8 73 50
67 97 -9 63 -37 83 -127 89 -27 2 -47 15 -97 64 -34 34 -65 74 -69 88 -3 15
-3 52 2 84 15 107 -3 162 -70 216 -50 41 -140 48 -203 16z"/>
</g>
</svg>
